<?xml version="1.0" encoding="UTF-8" standalone="no"?>
<svg
   xmlns:dc="http://purl.org/dc/elements/1.1/"
   xmlns:cc="http://creativecommons.org/ns#"
   xmlns:rdf="http://www.w3.org/1999/02/22-rdf-syntax-ns#"
   xmlns:svg="http://www.w3.org/2000/svg"
   xmlns="http://www.w3.org/2000/svg"
   viewBox="0 0 1122.52 793.70667"
   height="793.70667"
   width="1122.52"
   xml:space="preserve"
   id="svg2"
   version="1.1"><metadata
     id="metadata8"><rdf:RDF><cc:Work
         rdf:about=""><dc:format>image/svg+xml</dc:format><dc:type
           rdf:resource="http://purl.org/dc/dcmitype/StillImage" /></cc:Work></rdf:RDF></metadata><defs
     id="defs6"><clipPath
       id="clipPath18"
       clipPathUnits="userSpaceOnUse"><path
         id="path16"
         d="M 0,595.28 H 841.89 V 0 H 0 Z" /></clipPath></defs><g
     transform="matrix(1.3333333,0,0,-1.3333333,0,793.70667)"
     id="g10"><g
       id="g12"><g
         clip-path="url(#clipPath18)"
         id="g14"><g
           transform="translate(247.2329,171.8252)"
           id="g20"><path
             
             
             d="m 0,0 c 0.366,0 0.776,0.01 1.226,0.017 0.45,0.01 0.783,-0.065 1.01,-0.229 0.164,-0.12 0.317,-0.302 0.46,-0.534 0.143,-0.234 0.276,-0.442 0.399,-0.625 0.262,-0.416 0.535,-0.825 0.812,-1.242 0.276,-0.421 0.543,-0.846 0.813,-1.274 0.137,-0.226 0.288,-0.445 0.442,-0.658 0.154,-0.213 0.299,-0.432 0.443,-0.657 0.614,-0.98 1.235,-1.96 1.871,-2.925 0.63,-0.973 1.265,-1.949 1.897,-2.926 0.163,-0.287 0.341,-0.551 0.536,-0.811 0.195,-0.254 0.371,-0.526 0.535,-0.813 0.348,-0.551 0.702,-1.098 1.057,-1.637 0.36,-0.543 0.711,-1.081 1.059,-1.611 0.1,-0.162 0.228,-0.361 0.38,-0.596 0.157,-0.237 0.343,-0.35 0.568,-0.35 0.102,0.037 0.154,0.068 0.154,0.091 0.101,0.12 0.152,0.296 0.152,0.52 v 0.643 2.419 9.372 1.841 c 0,0.137 -0.012,0.295 -0.029,0.457 -0.022,0.164 -0.013,0.316 0.029,0.461 v 0.335 c 0.041,0.083 0.066,0.165 0.077,0.248 0.011,0.08 0.036,0.152 0.078,0.211 0.123,0.165 0.302,0.252 0.55,0.261 C 14.765,-0.001 15.028,0 15.316,0 h 0.383 c 0.132,0 0.248,-0.014 0.35,-0.06 0.247,-0.1 0.385,-0.277 0.416,-0.534 0.031,-0.252 0.044,-0.558 0.044,-0.906 V -4.865 -17.7 -20.274 c 0,-0.221 0.006,-0.449 0.015,-0.674 0.012,-0.223 -0.033,-0.396 -0.136,-0.519 -0.084,-0.125 -0.18,-0.2 -0.291,-0.231 -0.112,-0.03 -0.251,-0.068 -0.415,-0.105 h -0.795 -0.753 c -0.254,0 -0.462,0.037 -0.626,0.119 -0.163,0.064 -0.293,0.165 -0.383,0.306 -0.094,0.148 -0.188,0.287 -0.292,0.43 -0.163,0.248 -0.333,0.503 -0.504,0.767 -0.173,0.268 -0.342,0.531 -0.507,0.796 -0.733,1.105 -1.456,2.196 -2.173,3.279 -0.713,1.08 -1.429,2.184 -2.143,3.303 -0.389,0.618 -0.78,1.217 -1.179,1.811 -0.401,0.593 -0.792,1.195 -1.181,1.807 C 4.473,-8.127 3.769,-7.052 3.033,-5.97 2.949,-5.828 2.87,-5.688 2.788,-5.556 2.706,-5.422 2.594,-5.307 2.453,-5.202 2.41,-5.18 2.371,-5.153 2.328,-5.111 2.289,-5.069 2.236,-5.064 2.174,-5.078 2.052,-5.124 1.981,-5.202 1.962,-5.326 1.941,-5.448 1.91,-5.571 1.868,-5.696 V -5.908 C 1.828,-6.052 1.819,-6.21 1.839,-6.382 1.857,-6.558 1.868,-6.726 1.868,-6.886 v -2.021 -9.744 -1.442 c 0,-0.098 0.005,-0.218 0.019,-0.364 0.006,-0.142 -0.007,-0.266 -0.048,-0.368 V -21.07 C 1.796,-21.275 1.757,-21.415 1.716,-21.501 1.676,-21.599 1.603,-21.667 1.5,-21.698 1.398,-21.728 1.287,-21.766 1.166,-21.803 H 0.552 c -0.286,0 -0.541,0.009 -0.767,0.029 -0.224,0.023 -0.388,0.112 -0.489,0.273 -0.104,0.123 -0.151,0.296 -0.151,0.508 v 0.66 2.478 12.803 3.311 0.779 c 0,0.276 0.047,0.496 0.151,0.661 0.059,0.101 0.183,0.193 0.368,0.273 0.042,0.021 0.096,0.027 0.169,0.016 C -0.096,-0.021 -0.041,-0.014 0,0" /></g><g
           transform="translate(269.3164,171.8252)"
           
           
           
          
           
       
           
          
           id="g144"><path
             id="path146"
             style="fill:#fff;fill-opacity:1;fill-rule:evenodd;stroke:none"
             d="m 0,0 13.318,-12.11 c -11.442,-11.939 -26.204,-26.975 -38.263,-39.439 0,0 -5.846,-5.874 2.689,-5.874 h 32.55 c 15.448,16.084 15.795,16.28 33.287,34.494 0,0 7.823,8.468 -2.489,19.206 -0.017,-0.014 -0.033,-0.032 -0.046,-0.044 L -34.838,65.51 c -15.799,14.578 -28.403,-1.805 -28.403,-1.805 -27.404,-28.534 -41.748,-43.292 -68.643,-71.289 -9.185,-9.565 -17.853,-21.118 -33.926,-22.31 -15.54,-1.162 -25.561,5.25 -32.515,13.014 -6.259,6.982 -10.327,17.068 -10.36,27.524 -0.073,23.715 18.742,42.516 41.799,40.908 11.465,-0.803 19.829,-6.037 25.997,-13.091 0,0 5.839,-8.659 12.522,-1.703 3.644,3.792 5.236,5.653 8.872,9.434 5.688,5.922 0,12.685 0,12.685 -5.154,5.665 -11.061,10.705 -18.104,14.613 -9.265,5.153 -21.492,9.232 -36.081,8.186 -19.873,-1.428 -35.183,-11.015 -45.363,-22.319 -9.929,-11.015 -18.574,-27.235 -18.574,-48.713 0,-19.364 7.697,-36.588 18.574,-48.724 10.234,-11.42 25.182,-20.712 44.653,-21.942 23.964,-1.513 40.795,8.001 52.868,20.453 24.986,25.773 48.339,50.689 72.58,75.828 0,0 4.171,4.468 8.895,0.158 l 13.983,-12.71 c -22.523,-23.33 -48.202,-49.831 -70.986,-73.501 0,0 -8.154,-7.738 1.337,-7.738 l 32.677,0.004 c 15.216,15.85 38.123,39.945 54.445,56.931 0,0 4.39,4.976 8.591,0.597" /></g></g></g></g></svg>