<svg xmlns="http://www.w3.org/2000/svg" width="159.667" height="45" viewBox="0 0 159.667 45"><defs><style>.a{fill:#6f4ca0;}.b{fill:#0163a7;}</style></defs><path class="a" d="M322.443,331.092a10.554,10.554,0,0,1,6.412-2.072c5.981,0,6.449,4.285,5.471,7.928a9.946,9.946,0,0,1-9.9,7.779c-3.987,0-7.115-2.193-5.616-7.757a11.7,11.7,0,0,1,3.633-5.878m2.844,10.6c2.968,0,4.2-2.727,4.761-4.8.56-2.092.339-3.126.056-3.792a2.227,2.227,0,0,0-2.2-1.071c-2.742,0-4.121,2.358-4.808,4.925-.643,2.379-.572,4.74,2.191,4.74" transform="translate(-264.852 -314.284)"/><path class="a" d="M348.036,339.641c-.138.6-.557,2.32,1.912,2.32.351,0,2.223,0,2.677-1.7.193-.7.032-1.182-.9-1.452l-3.412-.947c-.97-.276-3.457-.976-2.618-4.1.652-2.425,3.085-4.677,7.569-4.677,5.859,0,5.255,3.166,4.847,4.762H353.9c.121-.458.577-2.069-1.414-2.069a2.376,2.376,0,0,0-2.4,1.57c-.295,1.094.548,1.367,1.1,1.532l2.613.726c1.854.516,4.054,1.134,3.205,4.3-.9,3.333-4.163,4.824-7.922,4.824-1.559,0-4.006-.252-4.961-1.783a4.244,4.244,0,0,1-.252-3.308Z" transform="translate(-273.428 -314.306)"/><path class="a" d="M369.278,329.582h6.891a6.216,6.216,0,0,1,3.7.77c1.06.762,1.547,2.108,1.029,4.054a6.332,6.332,0,0,1-3.358,4.077,9.713,9.713,0,0,1-3.95.641l-2.707.022-1.447,5.382H365.26Zm2.372,6.707h1.844c1.016,0,2.658,0,3.2-2.008.492-1.82-.952-1.926-2.162-1.926h-1.821Z" transform="translate(-280.779 -314.477)"/><path class="a" d="M391.861,329.649h11.255l-.767,2.857h-7.142l-.831,3.1H401.1l-.77,2.86H393.6l-.853,3.183h7.307l-.779,2.9H387.858Z" transform="translate(-288.464 -314.499)"/><path class="a" d="M412.5,329.6h6.335c1.786,0,4.1.185,5.376,1.239,1.815,1.51,1.754,3.974,1.155,6.191-.888,3.313-2.6,5.756-5.95,6.929a14.056,14.056,0,0,1-4.553.584H408.48Zm1.011,12.066h1.786c2.77-.022,4.85-1.2,5.782-4.675,1.221-4.538-2.182-4.538-3.446-4.538l-1.639-.018Z" transform="translate(-295.477 -314.482)"/><path class="a" d="M440.44,329.619l1.6,6.271,5.066-6.271h4.278l-8.45,9.663-1.419,5.281h-4.194l1.466-5.47-3.16-9.475Z" transform="translate(-304.708 -314.489)"/><path class="a" d="M466.685,334.441c.218-1.515-.688-2.072-1.871-2.072-2.512,0-3.9,2.3-4.636,5.03-.242.912-1.235,4.673,1.983,4.673a3.121,3.121,0,0,0,3.1-2.171h4.316c-1.276,4.681-6.153,5.073-8.108,5.073-1.453,0-3.96-.248-5.153-1.99-1.175-1.736-.825-4.116-.407-5.667a11.179,11.179,0,0,1,3.418-5.7,8.983,8.983,0,0,1,6.276-2.194c2.434,0,4.123.58,4.973,1.824a3.9,3.9,0,0,1,.393,3.189Z" transform="translate(-311.472 -314.424)"/><path class="a" d="M288.593,345.385l-.02.079h13.3l3.556-13.243c-7,1.077-13.789,6.392-16.835,13.165" transform="translate(-254.699 -315.38)"/><path class="a" d="M254.16,329.446l.02-.074H240.817l-3.575,13.309c7.061-1.1,13.852-6.429,16.918-13.234" transform="translate(-237.242 -314.405)"/><path class="b" d="M262.434,306.621s-.669,23.714-22.038,30.084c0,0,26.333,1.262,35.733-30.084Z" transform="translate(-238.315 -306.621)"/><path class="b" d="M270.074,359.422s.667-23.642,21.971-29.993c0,0-26.253-1.259-35.624,29.993Z" transform="translate(-243.764 -314.422)"/></svg>